<svg width="64" height="64" viewBox="0 0 64 64" fill="none" xmlns="http://www.w3.org/2000/svg">
<rect width="64" height="64" rx="8" fill="#F3F6F9"/>
<path d="M19.552 49V14.92H34.624C36.192 14.92 37.632 15.24 38.944 15.88C40.288 16.52 41.44 17.384 42.4 18.472C43.392 19.56 44.144 20.776 44.656 22.12C45.2 23.464 45.472 24.84 45.472 26.248C45.472 27.688 45.216 29.08 44.704 30.424C44.224 31.736 43.52 32.888 42.592 33.88C41.664 34.872 40.576 35.64 39.328 36.184L47.104 49H39.808L32.8 37.576H26.176V49H19.552ZM26.176 31.768H34.48C35.312 31.768 36.048 31.528 36.688 31.048C37.328 30.536 37.84 29.864 38.224 29.032C38.608 28.2 38.8 27.272 38.8 26.248C38.8 25.16 38.576 24.216 38.128 23.416C37.68 22.584 37.104 21.928 36.4 21.448C35.728 20.968 34.992 20.728 34.192 20.728H26.176V31.768Z" fill="#2E294E"/>
</svg>
